<svg width="20" height="20" viewBox="0 0 20 20" fill="none" xmlns="http://www.w3.org/2000/svg">
<path d="M12.6498 13.5336L17.6823 18.5673C17.7404 18.6254 17.8094 18.6715 17.8853 18.703C17.9613 18.7344 18.0426 18.7506 18.1248 18.7506C18.207 18.7506 18.2884 18.7344 18.3643 18.703C18.4402 18.6715 18.5092 18.6254 18.5673 18.5673C18.6254 18.5092 18.6715 18.4402 18.703 18.3643C18.7344 18.2884 18.7506 18.207 18.7506 18.1248C18.7506 18.0426 18.7344 17.9613 18.703 17.8853C18.6715 17.8094 18.6254 17.7404 18.5673 17.6823L2.31731 1.43231C2.2592 1.3742 2.19022 1.32811 2.11429 1.29666C2.03837 1.26521 1.95699 1.24902 1.87481 1.24902C1.79263 1.24902 1.71126 1.26521 1.63533 1.29666C1.55941 1.32811 1.49042 1.3742 1.43231 1.43231C1.3742 1.49042 1.32811 1.55941 1.29666 1.63533C1.26521 1.71126 1.24902 1.79263 1.24902 1.87481C1.24902 1.95699 1.26521 2.03837 1.29666 2.11429C1.32811 2.19022 1.3742 2.2592 1.43231 2.31731L5.46981 6.35481C4.92042 6.74424 4.42597 7.20589 3.99981 7.72731C3.39656 8.46751 2.92434 9.30542 2.60356 10.2048C2.57731 10.2811 2.54481 10.3861 2.54481 10.3861L2.52231 10.4636C2.52231 10.4636 2.42731 11.0848 2.96606 11.2273C3.12618 11.2696 3.29655 11.2467 3.43976 11.1635C3.58296 11.0803 3.68728 10.9436 3.72981 10.7836L3.73106 10.7798L3.74106 10.7486L3.78481 10.6123C4.05726 9.85297 4.45669 9.14541 4.96606 8.51981C5.36735 8.02845 5.84112 7.60106 6.37106 7.25231L8.34356 9.22481C7.94552 9.47429 7.60884 9.81031 7.35857 10.2079C7.1083 10.6054 6.95088 11.0543 6.89802 11.5211C6.84516 11.9878 6.89822 12.4605 7.05325 12.904C7.20828 13.3474 7.46129 13.7502 7.79347 14.0824C8.12564 14.4146 8.52843 14.6676 8.97188 14.8226C9.41533 14.9777 9.88803 15.0307 10.3548 14.9779C10.8216 14.925 11.2705 14.7676 11.668 14.5173C12.0656 14.267 12.4016 13.9304 12.6511 13.5323M11.7261 12.6073C11.6062 12.8899 11.4189 13.1387 11.1804 13.332C10.9419 13.5252 10.6597 13.657 10.3584 13.7157C10.0571 13.7743 9.74607 13.7582 9.45251 13.6686C9.15895 13.579 8.89187 13.4187 8.67473 13.2017C8.45758 12.9848 8.29701 12.7179 8.20711 12.4244C8.11721 12.131 8.10073 11.8199 8.15911 11.5186C8.2175 11.2173 8.34896 10.9349 8.54197 10.6962C8.73497 10.4576 8.98361 10.2699 9.26606 10.1498L11.7261 12.6073ZM7.89981 5.24981L8.96731 6.31731C9.29231 6.27231 9.63648 6.24981 9.99981 6.24981C12.5548 6.24981 14.1073 7.38981 15.0348 8.52106C15.5442 9.14666 15.9436 9.85422 16.2161 10.6136C16.2369 10.6744 16.2515 10.7198 16.2598 10.7498L16.2698 10.7811V10.7848L16.2711 10.7861C16.3173 10.9421 16.4226 11.0739 16.5645 11.1535C16.7064 11.2331 16.8737 11.2542 17.031 11.2124C17.1882 11.1706 17.3229 11.0691 17.4065 10.9295C17.4901 10.7899 17.5159 10.6232 17.4786 10.4648V10.4611L17.4773 10.4561L17.4723 10.4398C17.4512 10.3607 17.4261 10.2827 17.3973 10.2061C17.0765 9.30667 16.6043 8.46876 16.0011 7.72856C14.8811 6.36106 12.9948 4.99981 10.0023 4.99981C9.22981 4.99981 8.53106 5.08981 7.90106 5.24856" fill="#4F4F4F"/>
</svg>
