<svg width="30" height="30" viewBox="0 0 30 30" fill="none" xmlns="http://www.w3.org/2000/svg">
<rect width="30" height="30" rx="10" fill="#74797D"/>
<path d="M14.9996 5.4541C11.1814 5.4541 7.75208 7.71673 6.23188 11.2167C6.16117 11.3935 6.23188 11.6056 6.40865 11.6763C6.58541 11.747 6.79754 11.6763 6.86824 11.4996C7.64602 9.73188 8.9541 8.28238 10.545 7.36319C10.0501 7.85814 9.62582 8.45915 9.30764 9.09552C9.16622 9.37834 9.20158 9.73188 9.4137 9.944C9.73188 10.2975 10.3329 10.1208 10.5097 9.944C10.6511 9.80259 10.6157 9.62582 10.5097 9.44905C10.3329 9.16622 9.944 9.44905 9.944 9.44905C9.944 9.44905 10.5804 7.57531 13.0198 6.37329C13.444 6.26723 13.8329 6.23188 14.2571 6.19653C13.9036 6.55006 13.5147 6.86824 13.0551 7.15107C13.0551 7.15107 11.4288 8.14097 11.1814 8.35309C11.04 8.49451 11.04 8.67127 11.146 8.84804C11.3228 9.09552 11.5703 8.9541 11.641 8.88339C11.8884 8.70663 13.444 7.75208 13.444 7.75208C14.3632 7.36319 15.3177 6.19653 15.3177 6.19653C16.9086 6.26723 18.3935 6.72683 19.6662 7.53996L18.7824 8.4238C18.2521 8.9541 17.7925 9.30764 17.3329 9.55511C16.1662 10.2268 15.247 11.2167 14.646 12.4187C14.5046 12.7016 14.54 13.0551 14.7521 13.2672C15.1056 13.5854 15.6713 13.444 15.848 13.2672L16.4491 12.6662C16.5905 12.5248 16.5905 12.3127 16.4491 12.1713C16.3076 12.0299 16.0955 12.0299 15.9541 12.1713L15.2824 12.7723C15.2824 12.7723 15.848 11.146 17.6864 10.1561C18.2167 9.87329 18.7117 9.44905 19.2773 8.88339L20.2672 7.8935C20.444 8.03491 20.6208 8.17632 20.7975 8.31774L19.7016 9.4137C19.2773 9.80259 18.8884 10.1561 18.4289 10.439L17.4036 11.04C17.2268 11.146 17.1561 11.3581 17.2622 11.5349C17.4036 11.7824 17.6864 11.7117 17.7571 11.6763L18.7824 11.0753C19.3127 10.7571 19.7723 10.3682 20.1965 9.944L21.3278 8.81269C21.5753 9.06016 21.7874 9.30764 21.9996 9.55511L18.8884 12.6662C18.1107 13.444 17.5097 14.3278 17.1208 15.2824C16.6965 16.2723 16.1309 17.2268 15.3884 18.1107C15.247 18.2521 15.2824 18.4642 15.4238 18.6056C15.6006 18.7824 15.848 18.641 15.9187 18.5703C16.6965 17.6511 17.2975 16.6258 17.7571 15.5652C18.1107 14.6814 18.641 13.9036 19.3834 13.1612L22.4238 10.1208C22.848 10.7571 23.1662 11.4288 23.4137 12.1359L21.8228 13.7622C21.1511 14.2925 20.5501 15.5652 20.5501 15.5652C20.0905 16.343 19.4187 17.0147 18.641 17.4743C17.7925 18.0046 16.9794 18.6056 16.3076 19.2773L15.3177 20.2672C15.1763 20.4086 14.9642 20.4086 14.8228 20.2672C14.7521 20.1965 14.646 19.9844 14.8228 19.7723C14.9642 19.6309 14.9642 19.4187 14.8228 19.2773C14.6814 19.1359 14.4339 19.1359 14.3278 19.2773C13.7268 19.9844 14.1157 20.5501 14.3278 20.7622C14.8935 21.3278 15.6006 20.9743 15.8127 20.7622L16.8026 19.7723C17.439 19.1359 18.1814 18.5349 18.9945 18.04C19.8783 17.5097 20.5854 16.7672 21.1157 15.9187C21.1157 15.9187 21.6814 14.7521 22.3177 14.2571L23.6258 12.9137C23.7672 13.5854 23.8379 14.2925 23.8379 14.9996C23.8379 19.2066 20.8682 22.742 16.944 23.6258C17.1208 23.4844 17.2975 23.3783 17.4743 23.2723C17.6511 23.1662 17.6864 22.9541 17.5804 22.7773C17.4743 22.6006 17.2622 22.5652 17.0854 22.6713C16.4137 23.0248 15.6006 23.8379 15.6006 23.8379C15.3884 23.8379 14.7521 23.8733 14.646 23.8379L15.141 23.343C15.6006 22.8834 15.9895 22.6006 16.4137 22.3531L17.439 21.7521C18.0046 21.4339 18.4642 21.045 18.8531 20.6208C18.8531 20.6208 19.4895 19.9844 19.5248 20.0198C19.5248 20.0198 18.8531 21.1864 18.4289 21.646C18.2874 21.7874 18.2874 21.9996 18.4289 22.141C18.5703 22.2824 18.7824 22.2824 18.9238 22.141C19.4187 21.6107 19.843 21.045 20.1612 20.3733C20.3026 20.0905 20.2319 19.7369 20.0551 19.5248C19.6662 19.2066 19.1359 19.348 18.9592 19.5248L18.3581 20.1258C18.0046 20.5147 17.5804 20.8329 17.0854 21.1157L16.0602 21.7167C15.5652 21.9996 15.141 22.3531 14.646 22.848L13.7268 23.7319C12.1359 23.5198 10.6864 22.848 9.48441 21.8935L10.5097 20.8682C11.04 20.3379 11.4996 19.9844 11.9592 19.7369C13.1258 19.0652 14.045 18.0753 14.646 16.8733C14.7874 16.5905 14.7874 16.2369 14.5046 15.9895C14.3632 15.848 13.7622 15.6713 13.444 15.9895L12.843 16.5905C12.4895 16.9794 12.0652 17.2975 11.5703 17.5804L10.545 18.1814C9.97935 18.4996 9.51976 18.8884 9.13087 19.3127L8.03491 20.4086C7.85814 20.1612 7.68137 19.9491 7.53996 19.7016L10.5804 16.6612C11.3935 15.8127 11.9592 14.9289 12.348 14.0097C12.8783 12.7016 13.6915 11.4996 14.7521 10.439L15.141 10.0501C15.3531 9.83794 15.6359 9.06016 15.141 8.56521C14.7167 8.14097 14.0804 8.14097 13.6561 8.56521L12.6662 9.55511C12.0299 10.1915 11.2874 10.7925 10.4743 11.2874C9.55511 11.8531 8.84804 12.5602 8.35309 13.4086C8.35309 13.4086 7.71673 14.7521 7.18642 15.0703L6.30259 15.9541C6.19653 15.6713 6.16117 15.3531 6.16117 14.9996C6.16117 14.7874 6.01976 14.646 5.80764 14.646C5.59552 14.646 5.4541 14.7874 5.4541 14.9996C5.4541 20.2672 9.73188 24.545 14.9996 24.545C20.2672 24.545 24.545 20.2672 24.545 14.9996C24.545 9.73188 20.2672 5.4541 14.9996 5.4541ZM6.37329 16.8733L7.61067 15.6359C8.35309 15.0349 8.91875 13.8329 8.91875 13.8329C9.37834 13.0551 10.0147 12.4187 10.8278 11.9238C11.6763 11.3935 12.4895 10.7925 13.1612 10.1208L14.1511 9.13087C14.2925 8.98946 14.4693 8.98946 14.646 9.13087C14.8581 9.30764 14.7167 9.55511 14.646 9.62582L14.2571 10.0147C13.1258 11.146 12.2773 12.4187 11.7117 13.7975C11.3581 14.646 10.8278 15.4592 10.0854 16.2369L7.18642 19.1359C6.79754 18.3935 6.51471 17.6511 6.37329 16.8733ZM8.49451 20.9743L9.62582 19.843C9.97935 19.4541 10.4036 19.1359 10.8985 18.8531L11.9238 18.2521C12.4895 17.9339 12.9491 17.545 13.3379 17.1208C13.3379 17.1208 13.9743 16.5198 14.0097 16.5198C14.0097 16.5198 12.6309 18.5703 11.6056 19.1359C11.0753 19.4187 10.5804 19.843 10.0147 20.4086L8.9541 21.4693C8.81269 21.2925 8.63592 21.1511 8.49451 20.9743Z" fill="white"/>
<path d="M14.4272 14.4986C14.3924 14.6248 14.3576 14.7762 14.3228 14.9277C14.2879 15.0539 14.4272 15.2054 14.6012 15.2306C14.636 15.2306 14.9492 15.2559 15.0188 15.0287C15.0536 14.9024 15.0884 14.7762 15.1232 14.65C15.158 14.5238 15.0536 14.3723 14.8796 14.3471C14.6708 14.2714 14.462 14.3471 14.4272 14.4986Z" fill="white"/>
</svg>
