<svg width="22" height="24" viewBox="0 0 22 24" fill="none" xmlns="http://www.w3.org/2000/svg">
<g clip-path="url(#clip0_5104_21527)">
<path d="M9.9373 7H11.7441V9H9.9373V7ZM10.8407 17C11.3376 17 11.7441 16.55 11.7441 16V12C11.7441 11.45 11.3376 11 10.8407 11C10.3438 11 9.9373 11.45 9.9373 12V16C9.9373 16.55 10.3438 17 10.8407 17ZM10.8407 2C5.85396 2 1.80676 6.48 1.80676 12C1.80676 17.52 5.85396 22 10.8407 22C15.8274 22 19.8746 17.52 19.8746 12C19.8746 6.48 15.8274 2 10.8407 2ZM10.8407 20C6.85673 20 3.61355 16.41 3.61355 12C3.61355 7.59 6.85673 4 10.8407 4C14.8247 4 18.0678 7.59 18.0678 12C18.0678 16.41 14.8247 20 10.8407 20Z" fill="#656565"/>
</g>
<defs>
<clipPath id="clip0_5104_21527">
<rect width="21.6814" height="24" fill="white"/>
</clipPath>
</defs>
</svg>
