<svg width="22" height="24" viewBox="0 0 22 24" fill="none" xmlns="http://www.w3.org/2000/svg">
<g clip-path="url(#clip0_5104_21534)">
<path d="M17.4265 17.29L16.2611 16V11C16.2611 7.93 14.7795 5.36 12.1958 4.68V4C12.1958 3.17 11.5906 2.5 10.8408 2.5C10.0909 2.5 9.48566 3.17 9.48566 4V4.68C6.89293 5.36 5.42039 7.92 5.42039 11V16L4.25502 17.29C3.68588 17.92 4.08337 19 4.88739 19H16.7851C17.5981 19 17.9956 17.92 17.4265 17.29ZM14.4543 17H7.22718V11C7.22718 8.52 8.5913 6.5 10.8408 6.5C13.0902 6.5 14.4543 8.52 14.4543 11V17ZM10.8408 22C11.8345 22 12.6475 21.1 12.6475 20H9.03397C9.03397 21.1 9.83799 22 10.8408 22Z" fill="#656565"/>
</g>
<defs>
<clipPath id="clip0_5104_21534">
<rect width="21.6814" height="24" fill="white"/>
</clipPath>
</defs>
</svg>
