<svg width="25" height="25" viewBox="0 0 25 25" fill="none" xmlns="http://www.w3.org/2000/svg">
<path d="M12.5 22.805C6.74692 22.805 2.08337 18.1415 2.08337 12.3883C2.08337 6.63522 6.74692 1.97168 12.5 1.97168C18.2532 1.97168 22.9167 6.63626 22.9167 12.3883C22.9167 18.1404 18.2532 22.805 12.5 22.805ZM12.5 7.18001C12.2238 7.18001 11.9588 7.28976 11.7635 7.48511C11.5681 7.68046 11.4584 7.94541 11.4584 8.22168V13.43C11.4584 13.7063 11.5681 13.9712 11.7635 14.1666C11.9588 14.3619 12.2238 14.4717 12.5 14.4717C12.7763 14.4717 13.0413 14.3619 13.2366 14.1666C13.432 13.9712 13.5417 13.7063 13.5417 13.43V8.22168C13.5417 7.94541 13.432 7.68046 13.2366 7.48511C13.0413 7.28976 12.7763 7.18001 12.5 7.18001ZM12.5 17.5967C12.7763 17.5967 13.0413 17.4869 13.2366 17.2916C13.432 17.0962 13.5417 16.8313 13.5417 16.555C13.5417 16.2787 13.432 16.0138 13.2366 15.8184C13.0413 15.6231 12.7763 15.5133 12.5 15.5133C12.2238 15.5133 11.9588 15.6231 11.7635 15.8184C11.5681 16.0138 11.4584 16.2787 11.4584 16.555C11.4584 16.8313 11.5681 17.0962 11.7635 17.2916C11.9588 17.4869 12.2238 17.5967 12.5 17.5967Z" fill="black"/>
</svg>
