<svg width="28" height="17" viewBox="0 0 28 17" fill="none" xmlns="http://www.w3.org/2000/svg">
<path fill-rule="evenodd" clip-rule="evenodd" d="M27.4831 1.36125V6.875C27.483 7.1469 27.4024 7.41269 27.2513 7.63875C27.1002 7.86482 26.8855 8.04101 26.6343 8.14506C26.383 8.2491 26.1066 8.27633 25.8399 8.2233C25.5733 8.17027 25.3283 8.03936 25.136 7.84712L23.3581 6.06925L16.0802 13.3471C15.8224 13.6049 15.4727 13.7497 15.1081 13.7497C14.7435 13.7497 14.3938 13.6049 14.136 13.3471L9.60811 8.81925L2.33023 16.0971C2.0709 16.3476 1.72357 16.4862 1.36305 16.483C1.00253 16.4799 0.657665 16.3353 0.402728 16.0804C0.147792 15.8254 0.00318481 15.4806 5.19786e-05 15.12C-0.00308085 14.7595 0.135511 14.4122 0.385979 14.1529L8.63598 5.90287C8.89383 5.6451 9.2435 5.50029 9.60811 5.50029C9.97271 5.50029 10.3224 5.6451 10.5802 5.90287L15.1081 10.4307L21.4139 4.125L19.636 2.34712C19.4437 2.15483 19.3128 1.90985 19.2598 1.64317C19.2068 1.37648 19.234 1.10006 19.3381 0.84885C19.4421 0.597637 19.6183 0.382913 19.8444 0.231822C20.0704 0.0807316 20.3362 5.80584e-05 20.6081 0H26.1081L26.1741 0.0013749C26.5253 0.0169006 26.8571 0.166889 27.1008 0.420287C27.3444 0.673684 27.4813 1.01108 27.4831 1.36262" fill="#1E1E1E"/>
</svg>
