<svg width="14" height="25" viewBox="0 0 14 25" fill="none" xmlns="http://www.w3.org/2000/svg">
<path d="M7.25253 10.8104C4.14626 10.003 3.14733 9.1683 3.14733 7.86832C3.14733 6.37676 4.52941 5.33677 6.84201 5.33677C8.78515 5.33677 9.75671 6.07571 10.1125 7.25254C10.2767 7.7999 10.7283 8.21042 11.303 8.21042H11.7135C12.6167 8.21042 13.2598 7.32096 12.9451 6.47255C12.3704 4.85783 11.0293 3.5168 8.89462 2.9968V2.0526C8.89462 0.91683 7.97779 0 6.84201 0C5.70624 0 4.78941 0.91683 4.78941 2.0526V2.95575C2.13471 3.53048 0 5.25467 0 7.89569C0 11.0567 2.61365 12.6304 6.43149 13.5472C9.8525 14.3682 10.5367 15.5724 10.5367 16.845C10.5367 17.7892 9.86618 19.2945 6.84201 19.2945C4.58415 19.2945 3.42101 18.4871 2.96943 17.3377C2.76417 16.804 2.29892 16.4208 1.73787 16.4208H1.35472C0.437889 16.4208 -0.205261 17.3513 0.13684 18.1998C0.91683 20.1018 2.73681 21.2239 4.78941 21.6618V22.5786C4.78941 23.7144 5.70624 24.6313 6.84201 24.6313C7.97779 24.6313 8.89462 23.7144 8.89462 22.5786V21.6892C11.563 21.1829 13.684 19.6366 13.684 16.8314C13.684 12.9451 10.3588 11.6177 7.25253 10.8104Z" fill="black"/>
</svg>
