<svg width="12" height="12" viewBox="0 0 12 12" fill="none" xmlns="http://www.w3.org/2000/svg">
<path fill-rule="evenodd" clip-rule="evenodd" d="M0 6C0 6 2.25 1.5 6 1.5C9.75 1.5 12 6 12 6C12 6 9.75 10.5 6 10.5C2.25 10.5 0 6 0 6ZM1.3575 6.0975L1.2975 6L1.359 5.9025C1.6035 5.52 1.9635 5.01225 2.424 4.5105C3.3705 3.47625 4.59 2.625 6 2.625C7.4085 2.625 8.6295 3.47625 9.5775 4.5105C9.99692 4.97184 10.3735 5.4704 10.7025 6C10.372 6.52897 9.995 7.02744 9.576 7.4895C8.6295 8.52375 7.41 9.375 6 9.375C4.5915 9.375 3.3705 8.52375 2.4225 7.4895C2.0285 7.05668 1.67221 6.59099 1.3575 6.0975ZM8.25 6C8.24986 6.47364 8.10025 6.93517 7.82249 7.31882C7.54472 7.70246 7.15298 7.98867 6.70305 8.13667C6.25312 8.28467 5.76796 8.28691 5.31668 8.14306C4.86541 7.99922 4.47104 7.71663 4.18975 7.33556C3.90846 6.95448 3.75461 6.49436 3.7501 6.02074C3.7456 5.54712 3.89067 5.08415 4.16465 4.69779C4.43864 4.31144 4.82756 4.0214 5.27602 3.86899C5.72447 3.71659 6.20959 3.70959 6.66225 3.849C6.49649 3.92401 6.3514 4.0381 6.23941 4.18149C6.12743 4.32488 6.05189 4.49329 6.01928 4.67229C5.98667 4.85128 5.99795 5.03551 6.05217 5.20918C6.10638 5.38285 6.20191 5.54079 6.33056 5.66944C6.45921 5.79809 6.61715 5.89362 6.79082 5.94783C6.96449 6.00205 7.14872 6.01333 7.32771 5.98072C7.50671 5.94811 7.67512 5.87257 7.81851 5.76059C7.9619 5.6486 8.07599 5.50351 8.151 5.33775C8.21685 5.55233 8.25022 5.77555 8.25 6Z" fill="black"/>
</svg>
