<svg width="16" height="16" viewBox="0 0 16 16" fill="none" xmlns="http://www.w3.org/2000/svg">
<path d="M13.5537 2.44672C13.4276 2.3215 13.2694 2.23347 13.0965 2.1923C12.9237 2.15114 12.7428 2.15843 12.5737 2.21339L2.82041 5.46672C2.63952 5.52404 2.47968 5.63367 2.36107 5.78178C2.24245 5.92989 2.17039 6.10983 2.15399 6.29887C2.13758 6.48791 2.17756 6.67757 2.26888 6.8439C2.3602 7.01023 2.49877 7.14576 2.66708 7.23339L6.71374 9.23339L8.71374 13.2934C8.79413 13.4523 8.91714 13.5857 9.06902 13.6787C9.22089 13.7717 9.39565 13.8207 9.57374 13.8201H9.64041C9.83114 13.806 10.0132 13.7349 10.163 13.616C10.3128 13.4971 10.4234 13.3359 10.4804 13.1534L13.7804 3.42672C13.8393 3.25867 13.8493 3.07735 13.8092 2.90385C13.7691 2.73035 13.6805 2.57182 13.5537 2.44672ZM3.23374 6.38672L11.7471 3.54672L7.02041 8.27339L3.23374 6.38672ZM9.62041 12.7667L7.72708 8.98005L12.4537 4.25339L9.62041 12.7667Z" fill="black"/>
</svg>
