<svg width="18" height="18" viewBox="0 0 18 18" fill="none" xmlns="http://www.w3.org/2000/svg">
<path d="M16.2554 13.9152C15.7732 13.4854 15.3511 12.9926 15.0004 12.4502C14.6171 11.7016 14.3876 10.8839 14.3254 10.0452V7.5752C14.3287 6.258 13.8509 4.98493 12.9818 3.99518C12.1126 3.00543 10.912 2.36713 9.60539 2.2002V1.5552C9.60539 1.37816 9.53506 1.20838 9.40988 1.0832C9.2847 0.958021 9.11492 0.887695 8.93789 0.887695C8.76086 0.887695 8.59108 0.958021 8.4659 1.0832C8.34072 1.20838 8.27039 1.37816 8.27039 1.5552V2.2102C6.97552 2.38916 5.78938 3.03132 4.93165 4.01775C4.07393 5.00417 3.60276 6.26802 3.60539 7.5752V10.0452C3.54317 10.8839 3.31366 11.7016 2.93039 12.4502C2.58583 12.9914 2.17049 13.4841 1.69539 13.9152C1.64206 13.9621 1.59931 14.0197 1.57 14.0844C1.54069 14.149 1.52548 14.2192 1.52539 14.2902V14.9702C1.52539 15.1028 1.57807 15.23 1.67184 15.3237C1.76561 15.4175 1.89278 15.4702 2.02539 15.4702H15.9254C16.058 15.4702 16.1852 15.4175 16.2789 15.3237C16.3727 15.23 16.4254 15.1028 16.4254 14.9702V14.2902C16.4253 14.2192 16.4101 14.149 16.3808 14.0844C16.3515 14.0197 16.3087 13.9621 16.2554 13.9152ZM2.56539 14.4702C3.03049 14.0207 3.44007 13.5171 3.78539 12.9702C4.26829 12.0662 4.54973 11.0683 4.61039 10.0452V7.5752C4.59056 6.98921 4.68885 6.40523 4.89941 5.85803C5.10997 5.31082 5.4285 4.81159 5.83601 4.39005C6.24353 3.9685 6.73171 3.63328 7.27148 3.40433C7.81125 3.17539 8.39157 3.0574 8.97789 3.0574C9.56421 3.0574 10.1445 3.17539 10.6843 3.40433C11.2241 3.63328 11.7122 3.9685 12.1198 4.39005C12.5273 4.81159 12.8458 5.31082 13.0564 5.85803C13.2669 6.40523 13.3652 6.98921 13.3454 7.5752V10.0452C13.406 11.0683 13.6875 12.0662 14.1704 12.9702C14.5157 13.5171 14.9253 14.0207 15.3904 14.4702H2.56539Z" fill="black"/>
<path d="M9.00016 17.14C9.31512 17.1327 9.61738 17.0143 9.85346 16.8057C10.0895 16.5971 10.2442 16.3117 10.2902 16H7.66016C7.70739 16.3202 7.86932 16.6123 8.11581 16.822C8.3623 17.0317 8.67657 17.1447 9.00016 17.14Z" fill="black"/>
</svg>
