<svg width="30" height="33" viewBox="0 0 30 33" fill="none" xmlns="http://www.w3.org/2000/svg">
<g clip-path="url(#clip0_4805_20627)">
<rect width="30" height="33" fill="#E1E1E1"/>
<path d="M14.75 14.9875C11.9125 14.1762 11 13.3375 11 12.0312C11 10.5325 12.2625 9.4875 14.375 9.4875C16.15 9.4875 17.0375 10.23 17.3625 11.4125C17.5125 11.9625 17.925 12.375 18.45 12.375H18.825C19.65 12.375 20.2375 11.4812 19.95 10.6287C19.425 9.00625 18.2 7.65875 16.25 7.13625V6.1875C16.25 5.04625 15.4125 4.125 14.375 4.125C13.3375 4.125 12.5 5.04625 12.5 6.1875V7.095C10.075 7.6725 8.125 9.405 8.125 12.0588C8.125 15.235 10.5125 16.8162 14 17.7375C17.125 18.5625 17.75 19.7725 17.75 21.0513C17.75 22 17.1375 23.5125 14.375 23.5125C12.3125 23.5125 11.25 22.7013 10.8375 21.5462C10.65 21.01 10.225 20.625 9.7125 20.625H9.3625C8.525 20.625 7.9375 21.56 8.25 22.4125C8.9625 24.3237 10.625 25.4513 12.5 25.8913V26.8125C12.5 27.9538 13.3375 28.875 14.375 28.875C15.4125 28.875 16.25 27.9538 16.25 26.8125V25.9188C18.6875 25.41 20.625 23.8563 20.625 21.0375C20.625 17.1325 17.5875 15.7987 14.75 14.9875Z" fill="black"/>
</g>
<defs>
<clipPath id="clip0_4805_20627">
<rect width="30" height="33" fill="white"/>
</clipPath>
</defs>
</svg>
