<svg width="14" height="14" viewBox="0 0 14 14" fill="none" xmlns="http://www.w3.org/2000/svg">
<path fill-rule="evenodd" clip-rule="evenodd" d="M12.8333 9.9225V7.58333C12.8333 7.46798 12.7991 7.35522 12.735 7.25932C12.6709 7.16341 12.5798 7.08866 12.4732 7.04452C12.3666 7.00038 12.2494 6.98883 12.1362 7.01133C12.0231 7.03383 11.9192 7.08936 11.8376 7.17092L11.0833 7.92517L7.99574 4.83758C7.88635 4.72823 7.73801 4.66679 7.58333 4.66679C7.42865 4.66679 7.2803 4.72823 7.17091 4.83758L5.24999 6.7585L2.16241 3.67092C2.05239 3.56466 1.90504 3.50586 1.75209 3.50719C1.59914 3.50852 1.45284 3.56987 1.34468 3.67802C1.23653 3.78618 1.17518 3.93249 1.17385 4.08543C1.17252 4.23838 1.23132 4.38573 1.33758 4.49575L4.83758 7.99575C4.94697 8.10511 5.09531 8.16654 5.24999 8.16654C5.40467 8.16654 5.55302 8.10511 5.66241 7.99575L7.58333 6.07483L10.2585 8.75L9.50424 9.50425C9.42269 9.58583 9.36715 9.68976 9.34466 9.8029C9.32216 9.91604 9.33371 10.0333 9.37785 10.1399C9.42199 10.2465 9.49674 10.3376 9.59264 10.4017C9.68855 10.4658 9.80131 10.5 9.91666 10.5H12.25L12.278 10.4994C12.427 10.4928 12.5677 10.4292 12.6711 10.3217C12.7745 10.2142 12.8326 10.0711 12.8333 9.92192" fill="#1E1E1E"/>
</svg>
