<svg width="25" height="25" viewBox="0 0 25 25" fill="none" xmlns="http://www.w3.org/2000/svg">
<path fill-rule="evenodd" clip-rule="evenodd" d="M22.9162 7.28125V11.4583C22.9162 11.6643 22.8551 11.8657 22.7406 12.0369C22.6262 12.2082 22.4635 12.3417 22.2732 12.4205C22.0829 12.4993 21.8734 12.5199 21.6714 12.4798C21.4694 12.4396 21.2838 12.3404 21.1381 12.1948L19.7912 10.8479L14.2777 16.3615C14.0824 16.5567 13.8175 16.6664 13.5412 16.6664C13.265 16.6664 13.0001 16.5567 12.8048 16.3615L9.37457 12.9312L3.86103 18.4448C3.66457 18.6345 3.40144 18.7395 3.12832 18.7372C2.8552 18.7348 2.59393 18.6252 2.4008 18.4321C2.20767 18.239 2.09812 17.9777 2.09574 17.7046C2.09337 17.4315 2.19836 17.1683 2.38811 16.9719L8.63811 10.7219C8.83345 10.5266 9.09836 10.4169 9.37457 10.4169C9.65078 10.4169 9.91569 10.5266 10.111 10.7219L13.5412 14.1521L18.3183 9.375L16.9714 8.02812C16.8258 7.88245 16.7266 7.69686 16.6865 7.49482C16.6463 7.29279 16.6669 7.08338 16.7457 6.89307C16.8246 6.70276 16.958 6.54009 17.1293 6.42562C17.3006 6.31116 17.5019 6.25004 17.7079 6.25H21.8746L21.9246 6.25104C22.1906 6.2628 22.442 6.37643 22.6266 6.5684C22.8112 6.76037 22.9149 7.01597 22.9162 7.28229" fill="#1E1E1E"/>
</svg>
