<svg width="19" height="26" viewBox="0 0 19 26" fill="none" xmlns="http://www.w3.org/2000/svg">
<path d="M3.12727 0C2.29787 0 1.50243 0.32948 0.915957 0.915958C0.329479 1.50244 0 2.29787 0 3.12727V23.9758C0 24.2522 0.109827 24.5174 0.305319 24.7129C0.500812 24.9084 0.765957 25.0182 1.04242 25.0182H4.1697V19.8061C4.1697 19.5296 4.27953 19.2645 4.47502 19.069C4.67051 18.8735 4.93566 18.7636 5.21212 18.7636H13.5515C13.828 18.7636 14.0931 18.8735 14.2886 19.069C14.4841 19.2645 14.5939 19.5296 14.5939 19.8061V25.0182H17.7212C17.9977 25.0182 18.2628 24.9084 18.4583 24.7129C18.6538 24.5174 18.7636 24.2522 18.7636 23.9758V13.5515C18.7636 12.7221 18.4342 11.9267 17.8477 11.3402C17.2612 10.7537 16.4658 10.4242 15.6364 10.4242H14.5939V3.12727C14.5939 2.29787 14.2645 1.50244 13.678 0.915958C13.0915 0.32948 12.2961 0 11.4667 0H3.12727ZM6.25455 5.21212C6.25455 5.48859 6.14472 5.75374 5.94923 5.94923C5.75374 6.14472 5.48859 6.25455 5.21212 6.25455C4.93566 6.25455 4.67051 6.14472 4.47502 5.94923C4.27953 5.75374 4.1697 5.48859 4.1697 5.21212C4.1697 4.93566 4.27953 4.67051 4.47502 4.47502C4.67051 4.27953 4.93566 4.1697 5.21212 4.1697C5.48859 4.1697 5.75374 4.27953 5.94923 4.47502C6.14472 4.67051 6.25455 4.93566 6.25455 5.21212ZM6.25455 10.4242C6.25455 10.7007 6.14472 10.9659 5.94923 11.1614C5.75374 11.3568 5.48859 11.4667 5.21212 11.4667C4.93566 11.4667 4.67051 11.3568 4.47502 11.1614C4.27953 10.9659 4.1697 10.7007 4.1697 10.4242C4.1697 10.1478 4.27953 9.88264 4.47502 9.68714C4.67051 9.49165 4.93566 9.38182 5.21212 9.38182C5.48859 9.38182 5.75374 9.49165 5.94923 9.68714C6.14472 9.88264 6.25455 10.1478 6.25455 10.4242ZM6.25455 15.6364C6.25455 15.9128 6.14472 16.178 5.94923 16.3735C5.75374 16.569 5.48859 16.6788 5.21212 16.6788C4.93566 16.6788 4.67051 16.569 4.47502 16.3735C4.27953 16.178 4.1697 15.9128 4.1697 15.6364C4.1697 15.3599 4.27953 15.0948 4.47502 14.8993C4.67051 14.7038 4.93566 14.5939 5.21212 14.5939C5.48859 14.5939 5.75374 14.7038 5.94923 14.8993C6.14472 15.0948 6.25455 15.3599 6.25455 15.6364ZM10.4242 5.21212C10.4242 5.48859 10.3144 5.75374 10.1189 5.94923C9.92344 6.14472 9.65829 6.25455 9.38182 6.25455C9.10535 6.25455 8.84021 6.14472 8.64472 5.94923C8.44922 5.75374 8.3394 5.48859 8.3394 5.21212C8.3394 4.93566 8.44922 4.67051 8.64472 4.47502C8.84021 4.27953 9.10535 4.1697 9.38182 4.1697C9.65829 4.1697 9.92344 4.27953 10.1189 4.47502C10.3144 4.67051 10.4242 4.93566 10.4242 5.21212ZM10.4242 10.4242C10.4242 10.7007 10.3144 10.9659 10.1189 11.1614C9.92344 11.3568 9.65829 11.4667 9.38182 11.4667C9.10535 11.4667 8.84021 11.3568 8.64472 11.1614C8.44922 10.9659 8.3394 10.7007 8.3394 10.4242C8.3394 10.1478 8.44922 9.88264 8.64472 9.68714C8.84021 9.49165 9.10535 9.38182 9.38182 9.38182C9.65829 9.38182 9.92344 9.49165 10.1189 9.68714C10.3144 9.88264 10.4242 10.1478 10.4242 10.4242ZM10.4242 15.6364C10.4242 15.9128 10.3144 16.178 10.1189 16.3735C9.92344 16.569 9.65829 16.6788 9.38182 16.6788C9.10535 16.6788 8.84021 16.569 8.64472 16.3735C8.44922 16.178 8.3394 15.9128 8.3394 15.6364C8.3394 15.3599 8.44922 15.0948 8.64472 14.8993C8.84021 14.7038 9.10535 14.5939 9.38182 14.5939C9.65829 14.5939 9.92344 14.7038 10.1189 14.8993C10.3144 15.0948 10.4242 15.3599 10.4242 15.6364ZM14.5939 15.6364C14.5939 15.9128 14.4841 16.178 14.2886 16.3735C14.0931 16.569 13.828 16.6788 13.5515 16.6788C13.2751 16.6788 13.0099 16.569 12.8144 16.3735C12.6189 16.178 12.5091 15.9128 12.5091 15.6364C12.5091 15.3599 12.6189 15.0948 12.8144 14.8993C13.0099 14.7038 13.2751 14.5939 13.5515 14.5939C13.828 14.5939 14.0931 14.7038 14.2886 14.8993C14.4841 15.0948 14.5939 15.3599 14.5939 15.6364ZM12.5091 25.0182V20.8485H10.4305V25.0182H12.5091ZM8.34565 25.0182V20.8485H6.25455V25.0182H8.34565Z" fill="#FFFDFD"/>
</svg>
