<svg width="12" height="12" viewBox="0 0 12 12" fill="none" xmlns="http://www.w3.org/2000/svg">
<path d="M5.41667 8.81417V1.60583L3.475 3.5475L2.885 2.94917L5.83333 0L8.7825 2.94917L8.1925 3.54833L6.25 1.60583V8.81417H5.41667ZM1.34667 11.6667C0.962778 11.6667 0.6425 11.5383 0.385833 11.2817C0.129167 11.025 0.000555556 10.7044 0 10.32V8.30083H0.833333V10.32C0.833333 10.4483 0.886667 10.5661 0.993333 10.6733C1.1 10.7806 1.2175 10.8339 1.34583 10.8333H10.3208C10.4486 10.8333 10.5661 10.78 10.6733 10.6733C10.7806 10.5667 10.8339 10.4489 10.8333 10.32V8.30083H11.6667V10.32C11.6667 10.7039 11.5383 11.0242 11.2817 11.2808C11.025 11.5375 10.7044 11.6661 10.32 11.6667H1.34667Z" fill="black"/>
</svg>
