<svg width="23" height="28" viewBox="0 0 23 28" fill="none" xmlns="http://www.w3.org/2000/svg">
<path d="M11.25 0L0 5V12.5C0 19.4375 4.8 25.925 11.25 27.5C17.7 25.925 22.5 19.4375 22.5 12.5V5L11.25 0ZM11.25 4.875C11.9917 4.875 12.7167 5.09493 13.3334 5.50699C13.9501 5.91904 14.4307 6.50471 14.7145 7.18994C14.9984 7.87516 15.0726 8.62916 14.9279 9.35659C14.7833 10.084 14.4261 10.7522 13.9017 11.2766C13.3772 11.8011 12.709 12.1582 11.9816 12.3029C11.2542 12.4476 10.5002 12.3734 9.81494 12.0895C9.12971 11.8057 8.54404 11.3251 8.13199 10.7084C7.71993 10.0917 7.5 9.36668 7.5 8.625C7.5 7.63044 7.89509 6.67661 8.59835 5.97335C9.30161 5.27009 10.2554 4.875 11.25 4.875ZM11.25 14.75C13.75 14.75 18.75 16.1125 18.75 18.6C17.929 19.8376 16.8145 20.8529 15.5059 21.5552C14.1973 22.2575 12.7352 22.6251 11.25 22.6251C9.76482 22.6251 8.30272 22.2575 6.99409 21.5552C5.68546 20.8529 4.57096 19.8376 3.75 18.6C3.75 16.1125 8.75 14.75 11.25 14.75Z" fill="white"/>
</svg>
