<svg width="24" height="24" viewBox="0 0 24 24" fill="none" xmlns="http://www.w3.org/2000/svg">
<path d="M12 14L11.646 14.354L12 14.707L12.354 14.354L12 14ZM12.5 5C12.5 4.86739 12.4473 4.74021 12.3535 4.64645C12.2598 4.55268 12.1326 4.5 12 4.5C11.8674 4.5 11.7402 4.55268 11.6464 4.64645C11.5527 4.74021 11.5 4.86739 11.5 5H12.5ZM6.646 9.354L11.646 14.354L12.354 13.646L7.354 8.646L6.646 9.354ZM12.354 14.354L17.354 9.354L16.646 8.646L11.646 13.646L12.354 14.354ZM12.5 14V5H11.5V14H12.5Z" fill="black"/>
<path d="M5 16V17C5 17.5304 5.21071 18.0391 5.58579 18.4142C5.96086 18.7893 6.46957 19 7 19H17C17.5304 19 18.0391 18.7893 18.4142 18.4142C18.7893 18.0391 19 17.5304 19 17V16" stroke="black"/>
</svg>
